<svg width="25" height="25" viewBox="0 0 25 25" fill="none" xmlns="http://www.w3.org/2000/svg">
<g clip-path="url(#clip0)">
<path d="M11.4517 5.14514C11.1613 4.48441 10.5024 3.67035 8.98048 4.3394L7.63935 4.92896L6.36136 2.02185C5.59167 0.270973 3.68088 0.141496 2.7109 1.06716C2.00864 1.7374 1.68928 2.80579 2.15121 3.85659L6.68371 14.2318C5.57972 13.3956 3.47128 13.405 2.52754 14.377L2.55214 14.3397C1.54974 15.372 1.71761 16.8352 3.23867 18.1136L11.3557 24.5021L22.9842 19.3902L23.0474 18.3769C23.2121 15.7406 22.7433 13.1033 21.6803 10.6852L20.8001 8.68291C20.7544 8.57913 20.7045 8.47774 20.6505 8.37893C20.0366 7.25662 18.6627 6.79403 17.4896 7.30412L16.6158 7.68409L15.6282 5.43771C15.196 4.45453 14.0439 4.00734 13.0639 4.44666L11.4517 5.14514Z" fill="#FFC83D"/>
<path d="M22.1361 10.4841L21.2559 8.48193C21.2047 8.3654 21.1479 8.25007 21.0873 8.13941C20.7307 7.4874 20.1456 6.99653 19.4396 6.7572C18.7358 6.51856 17.9728 6.55048 17.291 6.84688L16.8721 7.02905L16.0841 5.23669C15.8207 4.63746 15.3388 4.17776 14.7275 3.94231C14.119 3.70796 13.4571 3.72504 12.8632 3.99027L11.6712 4.50668C11.4637 4.19305 11.2078 3.95646 10.9067 3.80068C10.3154 3.49467 9.59997 3.52236 8.78003 3.88285L7.89476 4.27203L6.81716 1.82078C6.40443 0.88192 5.63976 0.237921 4.71928 0.0539137C3.85522 -0.118739 2.97607 0.125126 2.36708 0.706329C1.44934 1.58214 1.18565 2.89713 1.69479 4.05536L5.71192 13.2507C4.505 12.957 3.10171 13.1898 2.28725 13.9172C2.25419 13.938 2.22311 13.963 2.19478 13.9921C1.65645 14.5466 1.39097 15.2163 1.42708 15.9288C1.47244 16.8253 1.98811 17.7125 2.9182 18.4942C2.92229 18.4976 2.92642 18.501 2.9306 18.5043L11.0477 24.8929C11.1371 24.9632 11.2459 24.9995 11.3558 24.9995C11.4236 24.9995 11.4918 24.9857 11.5561 24.9574L23.1846 19.8454C23.3551 19.7705 23.4696 19.6066 23.4812 19.4206L23.5445 18.4074C23.7133 15.7038 23.2263 12.964 22.1361 10.4841ZM17.5541 11.0553C17.6361 11.2419 17.8186 11.353 18.0102 11.353C18.0771 11.353 18.1452 11.3395 18.2104 11.3108C18.4621 11.2001 18.5765 10.9063 18.4658 10.6545L17.2728 7.94087L17.6881 7.76025C18.6354 7.34836 19.721 7.71682 20.2136 8.61748C20.2605 8.70319 20.3044 8.79243 20.3441 8.88271L21.2244 10.885C22.2508 13.2199 22.7093 15.7997 22.5504 18.3453L22.5061 19.0558L11.4289 23.9254L3.55309 17.7268C2.84395 17.129 2.45273 16.4899 2.42176 15.8784C2.40149 15.4777 2.53894 15.1058 2.83051 14.7716C2.84948 14.757 2.86761 14.7409 2.88479 14.7232C3.61185 13.9744 5.42304 13.9207 6.36399 14.6146L8.38458 16.5552C8.48109 16.648 8.60539 16.6941 8.72949 16.6941C8.86031 16.6941 8.99093 16.6428 9.08869 16.541C9.27922 16.3427 9.27284 16.0275 9.07449 15.8369L7.10027 13.9408L2.60706 3.65557C2.19567 2.71985 2.56862 1.8908 3.0547 1.42682C3.42331 1.07494 3.98619 0.923154 4.52407 1.03057C5.13047 1.15178 5.62099 1.57477 5.90539 2.22161L9.30367 9.95185C9.38564 10.1384 9.56825 10.2495 9.75978 10.2495C9.82671 10.2495 9.89478 10.236 9.95997 10.2073C10.2118 10.0966 10.3261 9.8028 10.2154 9.55101L8.29554 5.18375L9.18081 4.79457C9.71152 4.56121 10.1382 4.52441 10.4489 4.68521C10.6695 4.79935 10.8535 5.02131 10.9957 5.3448C10.9957 5.34485 10.9957 5.3449 10.9957 5.3449L12.9998 9.90379C13.0819 10.0904 13.2644 10.2015 13.456 10.2015C13.5229 10.2015 13.591 10.1879 13.6561 10.1593C13.9079 10.0486 14.0223 9.75474 13.9116 9.50296L12.109 5.40242L13.2618 4.90298C13.2637 4.90214 13.2656 4.90129 13.2676 4.90044C13.6181 4.74328 14.0094 4.73307 14.3695 4.87171C14.7314 5.0111 15.0164 5.28305 15.1723 5.63747L17.5541 11.0553Z" fill="black"/>
<path d="M11.9036 22.9584C11.712 22.9584 11.5292 22.8471 11.4473 22.6603C11.3369 22.4084 11.4515 22.1147 11.7034 22.0042L17.8698 19.2996C18.1215 19.1892 18.4153 19.3038 18.5259 19.5556C18.6363 19.8075 18.5217 20.1012 18.2698 20.2117L12.1034 22.9163C12.0384 22.9448 11.9705 22.9584 11.9036 22.9584Z" fill="black"/>
</g>
<defs>
<clipPath id="clip0">
<rect width="25" height="25" fill="white"/>
</clipPath>
</defs>
</svg>
